# File created by Blade
# Date/Time:  Wed Sep 24 19:42:34 2014
# Frame Rate: 120.000 fps
#------------------------------------------------------
:FULLY-SPECIFIED
:DEGREES
1023
root -4.545629 33.011671 -2.989148 7.561358 9.682879 -1.699569
Spine -16.682292 19.501122 -3.271866
Head 19.588463 -23.959418 -6.035544
LeftShoulder -8.675544 17.385988 7.758122
LeftArm 25.457711 33.694740 -66.606661
LeftForeArm -1.403412 -0.000000 23.538046
LeftHand -23.408425 -0.000000 -7.688091
LeftHandThumb1 -26.253704 0.000000 33.147579
RightShoulder -32.869675 55.064527 -72.339988
RightArm 39.865059 60.093412 87.454433
RightForeArm 71.738844 -0.000000 118.719085
RightHand 11.213732 0.000000 0.007368
RightHandThumb1 -24.326973 -0.000000 -32.862282
LeftUpLeg -2.575662 -0.234624 6.188269
LeftLeg -2.188040 -0.000000 0.000000
LeftFoot -7.243180 2.964208 -18.408549
LeftToeBase 10.071816 -0.000000 -0.000000
RightUpLeg -2.097027 -13.903092 0.325398
RightLeg 1.080741 -0.000000 -0.000000
RightFoot -6.211464 -5.596810 -14.053981
RightToeBase 0.448295 -0.000000 -0.000000
1024
root -4.525699 33.006018 -2.988118 7.558146 9.841458 -1.685970
Spine -16.797619 19.585870 -3.152210
Head 19.500946 -24.009241 -6.423190
LeftShoulder -8.621720 17.322355 7.836889
LeftArm 25.491124 33.894343 -66.771480
LeftForeArm -1.375090 -0.000000 23.471575
LeftHand -23.452668 0.000000 -7.681844
LeftHandThumb1 -26.253704 0.000000 33.147579
RightShoulder -24.776087 43.979265 -58.339614
RightArm 67.210885 54.390166 107.140721
RightForeArm 70.114516 -0.000000 117.963801
RightHand 10.853778 -0.000000 -1.077042
RightHandThumb1 -24.326973 -0.000000 -32.862282
LeftUpLeg -2.596759 -0.321658 6.158050
LeftLeg -2.182284 -0.000000 0.000000
LeftFoot -7.279688 2.879062 -18.372722
LeftToeBase 10.092115 -0.000000 -0.000000
RightUpLeg -2.057785 -13.990108 0.288654
RightLeg 1.065662 -0.000000 -0.000000
RightFoot -6.258564 -5.677916 -14.073276
RightToeBase 0.525450 -0.000000 -0.000000
1025
root -4.505839 33.002752 -2.988024 7.551570 10.000542 -1.660598
Spine -16.897765 19.695431 -3.015945
Head 19.426557 -24.100532 -6.942456
LeftShoulder -8.521156 17.316544 7.862433
LeftArm 25.576679 34.060985 -66.849752
LeftForeArm -1.351809 -0.000000 23.420483
LeftHand -23.454265 -0.000000 -7.723099
LeftHandThumb1 -26.253704 0.000000 33.147579
RightShoulder -23.007414 40.552244 -54.682854
RightArm 73.630116 52.255729 111.243967
RightForeArm 69.620350 -0.000000 118.133147
RightHand 10.764482 -0.000000 -1.183170
RightHandThumb1 -24.326973 -0.000000 -32.862282
LeftUpLeg -2.610703 -0.436809 6.117872
LeftLeg -2.184807 -0.000000 0.000000
LeftFoot -7.277111 2.832944 -18.324975
LeftToeBase 10.013158 -0.000000 -0.000000
RightUpLeg -2.013028 -14.067548 0.239871
RightLeg 1.046316 -0.000000 -0.000000
RightFoot -6.264337 -5.753866 -14.013813
RightToeBase 0.512155 -0.000000 -0.000000
1026
root -4.486192 33.000536 -2.988148 7.532018 10.159173 -1.621451
Spine -16.956479 19.814330 -2.888592
Head 19.413999 -24.178500 -7.445140
LeftShoulder -8.464963 17.222079 7.883427
LeftArm 25.665549 34.332253 -66.878594
LeftForeArm -1.425492 -0.000000 23.339351
LeftHand -23.418409 0.000000 -7.831792
LeftHandThumb1 -26.253704 0.000000 33.147579
RightShoulder -22.319480 39.140717 -53.145158
RightArm 75.899414 51.534450 112.765613
RightForeArm 69.271820 -0.000000 118.561609
RightHand 10.769799 -0.000000 -1.273330
RightHandThumb1 -24.326973 -0.000000 -32.862282
LeftUpLeg -2.619205 -0.540883 6.062224
LeftLeg -2.165737 -0.000000 0.000000
LeftFoot -7.283394 2.773415 -18.320219
LeftToeBase 10.090554 -0.000000 -0.000000
RightUpLeg -1.950098 -14.139732 0.172649
RightLeg 1.022603 -0.000000 -0.000000
RightFoot -6.265266 -5.830323 -13.990993
RightToeBase 0.545321 -0.000000 -0.000000
1027
root -4.466758 32.999039 -2.989191 7.523658 10.355710 -1.588144
Spine -17.036323 19.871215 -2.740071
Head 19.376426 -24.258533 -7.948360
LeftShoulder -8.387446 17.117184 7.916348
LeftArm 25.655933 34.572479 -66.988463
LeftForeArm -1.354497 -0.000000 23.280168
LeftHand -23.288145 0.000000 -8.107125
LeftHandThumb1 -26.253704 0.000000 33.147579
RightShoulder -21.883987 38.434275 -52.271110
RightArm 76.832914 51.340431 113.527617
RightForeArm 68.961603 0.000000 119.096682
RightHand 10.835148 -0.000000 -1.448465
RightHandThumb1 -24.326973 -0.000000 -32.862282
LeftUpLeg -2.645485 -0.709462 6.018367
LeftLeg -2.153671 -0.000000 0.000000
LeftFoot -7.278711 2.742182 -18.236491
LeftToeBase 9.991488 -0.000000 -0.000000
RightUpLeg -1.898106 -14.273952 0.119156
RightLeg 0.998672 -0.000000 -0.000000
RightFoot -6.271967 -5.881644 -13.954257
RightToeBase 0.533648 -0.000000 -0.000000
1028
root -4.450323 32.997863 -2.986285 7.509545 10.518049 -1.558810
Spine -17.092026 19.953643 -2.614572
Head 19.317953 -24.272204 -8.394076
LeftShoulder -8.342214 17.109595 7.940425
LeftArm 25.742631 34.740929 -67.027658
LeftForeArm -1.241677 0.000000 23.258946
LeftHand -23.239950 -0.000000 -8.170182
LeftHandThumb1 -26.253704 0.000000 33.147579
RightShoulder -21.625699 37.965027 -51.645385
RightArm 77.357052 51.265912 114.041843
RightForeArm 68.856538 -0.000000 119.625991
RightHand 10.936313 -0.000000 -1.636765
RightHandThumb1 -24.326973 -0.000000 -32.862282
LeftUpLeg -2.648779 -0.767406 5.977939
LeftLeg -2.159668 -0.000000 0.000000
LeftFoot -7.250665 2.666602 -18.237846
LeftToeBase 10.035463 -0.000000 -0.000000
RightUpLeg -1.832205 -14.388496 0.071552
RightLeg 0.962231 -0.000000 -0.000000
RightFoot -6.271536 -5.933065 -13.917514
RightToeBase 0.573118 -0.000000 -0.000000
1029
root -4.430837 32.996730 -2.986342 7.509892 10.744902 -1.513272
Spine -17.168547 19.962514 -2.487334
Head 19.258470 -24.392342 -8.822057
LeftShoulder -8.308439 17.042469 7.967121
LeftArm 25.737494 34.929829 -67.132534
LeftForeArm -1.146361 -0.000000 23.256452
LeftHand -23.434434 -0.000000 -7.955114
LeftHandThumb1 -26.253704 0.000000 33.147579
RightShoulder -21.389729 37.733369 -51.195859
RightArm 77.488605 51.341223 114.258943
RightForeArm 68.781856 -0.000000 120.184420
RightHand 11.032327 0.000000 -1.889395
RightHandThumb1 -24.326973 -0.000000 -32.862282
LeftUpLeg -2.691374 -0.912843 5.924862
LeftLeg -2.139071 -0.000000 0.000000
LeftFoot -7.226925 2.591491 -18.205557
LeftToeBase 10.015440 -0.000000 -0.000000
RightUpLeg -1.777175 -14.574131 0.009633
RightLeg 0.930117 -0.000000 -0.000000
RightFoot -6.274628 -5.940423 -13.873719
RightToeBase 0.547550 -0.000000 -0.000000
1030
root -4.413757 32.995899 -2.984069 7.511674 10.941858 -1.467285
Spine -17.242520 20.013403 -2.396313
Head 19.196326 -24.520918 -9.201843
LeftShoulder -8.257236 17.236712 7.973764
LeftArm 25.978332 34.974206 -67.075559
LeftForeArm -1.024277 -0.000000 23.310076
LeftHand -23.319639 -0.000000 -8.234022
LeftHandThumb1 -26.253704 0.000000 33.147579
RightShoulder -21.224306 37.418737 -50.750209
RightArm 77.695254 51.311156 114.506746
RightForeArm 68.935033 -0.000000 120.688318
RightHand 11.083119 0.000000 -2.143734
RightHandThumb1 -24.326973 -0.000000 -32.862282
LeftUpLeg -2.715699 -0.977952 5.869340
LeftLeg -2.139504 -0.000000 0.000000
LeftFoot -7.171675 2.480293 -18.166487
LeftToeBase 10.013019 -0.000000 -0.000000
RightUpLeg -1.730170 -14.735683 -0.050435
RightLeg 0.914281 -0.000000 -0.000000
RightFoot -6.294617 -5.973953 -13.828643
RightToeBase 0.601876 -0.000000 -0.000000
1031
root -4.401514 32.995986 -2.980918 7.523032 11.133693 -1.450057
Spine -17.356278 20.073620 -2.299109
Head 19.178750 -24.674078 -9.549410
LeftShoulder -8.184040 17.267876 8.010859
LeftArm 26.031655 35.118569 -67.087235
LeftForeArm -0.965279 -0.000000 23.343433
LeftHand -23.286806 -0.000000 -8.120499
LeftHandThumb1 -26.253704 0.000000 33.147579
RightShoulder -21.117060 37.324474 -50.429570
RightArm 77.614221 51.367816 114.548514
RightForeArm 69.262802 -0.000000 121.133609
RightHand 10.988161 -0.000000 -2.290814
RightHandThumb1 -24.326973 -0.000000 -32.862282
LeftUpLeg -2.755585 -0.976454 5.847483
LeftLeg -2.138362 -0.000000 0.000000
LeftFoot -7.098112 2.286425 -18.154324
LeftToeBase 10.028357 -0.000000 -0.000000
RightUpLeg -1.665160 -14.790623 -0.074886
RightLeg 0.828294 -0.000000 -0.000000
RightFoot -6.238117 -6.067165 -13.785298
RightToeBase 0.624405 -0.000000 -0.000000
